<svg width="163" height="148" viewBox="0 0 163 148" fill="none" xmlns="http://www.w3.org/2000/svg">
<g clip-path="url(#clip0)">
<path d="M107.005 99.5929H94.035C89.6343 99.5929 86.1602 96.1188 86.1602 91.7181V65.3144C86.1602 46.3222 101.678 30.8042 120.67 30.8042C139.662 30.8042 155.18 46.3222 155.18 65.3144V91.9497C155.18 96.3504 151.706 99.8245 147.306 99.8245H133.409L107.005 99.5929Z" fill="#021F35"/>
<path d="M97.2718 85.002C97.2718 85.002 96.8086 97.0457 101.209 99.5935L140.583 100.057C140.583 100.057 143.826 100.057 143.594 85.002H97.2718Z" fill="url(#paint0_linear)"/>
<path d="M130.859 101.446V106.541C130.859 107.699 131.322 108.626 132.017 109.552C132.943 110.479 133.87 110.71 135.028 110.71H139.197C138.27 113.026 133.407 125.07 120.436 125.07C107.466 125.07 102.602 113.026 101.676 110.71H105.845C107.003 110.71 107.929 110.247 108.856 109.552C109.782 108.626 110.014 107.699 110.014 106.541V101.446H130.859Z" fill="url(#paint1_linear)"/>
<path d="M120.433 147.305H154.017C158.418 147.305 161.892 143.83 161.892 139.43V132.018C161.892 120.206 152.396 110.71 140.584 110.71H138.962C138.036 113.026 133.172 125.07 120.202 125.07C107.232 125.07 102.368 113.026 101.441 110.71H99.82C88.0078 110.71 78.5117 120.206 78.5117 132.018V139.43C78.5117 143.83 81.9859 147.305 86.3865 147.305H120.433Z" fill="#F99108"/>
<g opacity="0.4">
<g opacity="0.4">
<g opacity="0.4">
<path opacity="0.4" d="M92.8789 147.305V132.251C92.8789 131.787 93.3421 131.324 93.8053 131.324C94.2686 131.324 94.7318 131.787 94.7318 132.251V147.305H92.8789Z" fill="#A9B5BC"/>
</g>
<g opacity="0.4">
<path opacity="0.4" d="M146.148 147.305V132.251C146.148 131.787 146.612 131.324 147.075 131.324C147.538 131.324 148.001 131.787 148.001 132.251V147.305H146.148Z" fill="#A9B5BC"/>
</g>
</g>
</g>
<path d="M143.831 66.7043H135.262V56.9766L125.766 66.7043H97.2773C97.2773 73.421 97.2773 77.3584 97.2773 81.9907C97.2773 94.0345 108.163 103.762 120.439 103.762C132.714 103.762 143.6 94.2661 143.6 81.9907C143.831 76.8952 143.831 73.8842 143.831 66.7043Z" fill="url(#paint2_linear)"/>
<path d="M140.818 110.71H139.197C138.27 113.026 133.406 125.07 120.436 125.07C107.466 125.07 102.602 113.026 101.675 110.71H100.054C99.8226 110.71 99.591 110.71 99.3594 110.71C99.3594 110.942 99.3594 111.173 99.591 111.405C100.517 113.953 106.076 127.386 120.436 127.386C134.796 127.386 140.355 114.184 141.281 111.405C141.281 111.173 141.281 110.942 141.281 110.71C141.281 110.71 141.05 110.71 140.818 110.71Z" fill="#FCE153"/>
<path d="M62.9973 94.4976H38.2148V121.133H62.9973V94.4976Z" fill="url(#paint3_linear)"/>
<path d="M62.9984 98.4351C62.9984 99.8247 63.4617 100.983 64.6197 102.141C65.5462 103.067 66.9358 103.762 68.3255 103.762H75.5055C89.8654 103.762 101.446 115.343 101.446 129.703V138.504C101.446 143.831 97.0454 148.232 91.7183 148.232H9.7277C4.40063 148.232 0 143.831 0 138.504V129.703C0 115.343 11.5806 103.762 25.9405 103.762H33.1205C34.5102 103.762 35.6682 103.299 36.8263 102.141C37.7527 101.214 38.4476 99.8247 38.4476 98.4351L50.9546 108.163L62.9984 98.4351Z" fill="url(#paint4_linear)"/>
<g opacity="0.4">
<g opacity="0.4">
<g opacity="0.4">
<path opacity="0.4" d="M17.1367 148V129.702C17.1367 129.008 17.5999 128.544 18.2948 128.544C18.9896 128.544 19.4528 129.008 19.4528 129.702V148H17.1367Z" fill="#A9B5BC"/>
</g>
<g opacity="0.4">
<path opacity="0.4" d="M81.7539 148V129.702C81.7539 129.008 82.2171 128.544 82.912 128.544C83.6068 128.544 84.0701 129.008 84.0701 129.702V148H81.7539Z" fill="#A9B5BC"/>
</g>
</g>
</g>
<path d="M62.9942 98.4351L50.7188 108.163L57.4355 117.659L67.858 103.531L62.9942 98.4351Z" fill="url(#paint5_linear)"/>
<path d="M33.3477 103.531L43.7702 117.659L50.7186 108.163L38.2115 98.4351L33.3477 103.531Z" fill="url(#paint6_linear)"/>
<path d="M55.3492 0H45.8532C25.9345 0 9.49009 15.518 8.33203 35.4366C8.33203 37.0579 8.33203 38.6792 8.79526 40.0689L12.2694 57.6714H89.1646L92.6388 40.0689C92.8704 38.4476 93.102 36.8263 93.102 35.4366C91.7123 15.518 75.2679 0 55.3492 0Z" fill="url(#paint7_linear)"/>
<path d="M55.3492 5.32666H45.8532C26.3978 5.32666 10.4165 19.9182 8.33203 38.9104C8.33203 39.3736 8.33203 39.8368 8.56364 40.3001L12.0378 57.9026H88.933L92.4072 40.3001C92.4072 39.8368 92.6388 39.3736 92.6388 38.9104C90.5543 19.9182 74.8046 5.32666 55.3492 5.32666Z" fill="#021F35"/>
<path d="M87.0827 70.4097V35.2047L50.7197 18.0654L14.125 35.2047V70.6413C14.125 78.5161 18.294 85.9277 25.2424 89.8651L28.7165 91.9496C42.15 99.8244 58.8261 99.8244 72.4912 91.9496L75.9654 89.8651C82.6821 85.6961 87.0827 78.2845 87.0827 70.4097Z" fill="url(#paint8_linear)"/>
<path d="M41.4552 19.9188L14.125 32.8891V46.3226H48.4036C55.1203 46.3226 61.1422 43.3116 65.3112 38.6794C67.3957 36.3633 70.8699 36.5949 72.7228 39.1426C75.7338 43.5432 80.8292 46.5542 86.6195 46.5542H87.0827V33.1207L54.1939 17.3711L41.4552 19.9188Z" fill="#EA826E"/>
<path d="M40.7594 73.4214C39.6014 73.4214 38.9065 74.3478 39.1381 75.5059C40.0646 81.2962 45.16 85.4652 51.1819 85.4652C57.2039 85.4652 62.0677 81.0646 63.2258 75.5059C63.4574 74.3478 62.5309 73.4214 61.6045 73.4214H40.7594Z" fill="#F98575"/>
<path d="M14.1246 66.7041C10.6504 66.7041 7.87109 63.9247 7.87109 60.4506V54.6603C7.87109 51.1861 10.6504 48.4067 14.1246 48.4067V66.7041Z" fill="url(#paint9_linear)"/>
<path d="M87.082 66.7041C90.5562 66.7041 93.3355 63.9247 93.3355 60.4506V54.6603C93.3355 51.1861 90.5562 48.4067 87.082 48.4067V66.7041Z" fill="url(#paint10_linear)"/>
<path d="M40.2985 72.7261C39.1404 72.7261 38.4456 73.6525 38.6772 74.8106C39.6036 80.6009 44.6991 84.7699 50.721 84.7699C56.7429 84.7699 61.6068 80.3693 62.7648 74.8106C62.9964 73.6525 62.07 72.7261 61.1435 72.7261H40.2985Z" fill="#021F35"/>
<path d="M50.7197 84.77C55.1967 84.77 58.8261 83.4219 58.8261 81.759C58.8261 80.0961 55.1967 78.748 50.7197 78.748C46.2426 78.748 42.6133 80.0961 42.6133 81.759C42.6133 83.4219 46.2426 84.77 50.7197 84.77Z" fill="#FF2D55"/>
<path d="M70.8694 18.5288V11.1172L13.4297 22.9294V43.3112H48.6347C55.3514 43.3112 61.3733 40.3003 65.5424 35.668C67.6269 33.3519 71.101 33.5835 72.9539 36.1313C75.9649 40.5319 81.0603 43.5428 86.8506 43.5428H88.9352L87.3139 25.2455L70.8694 18.5288Z" fill="#021F35"/>
<path d="M77.124 26.8672C75.2711 26.8672 73.4183 27.562 72.2602 28.9517L66.2383 34.742C68.3228 33.1207 71.3337 33.5839 72.7234 35.9001C75.7344 40.3007 80.8298 43.3116 86.6201 43.3116H87.0834V41.6903C87.0834 37.0581 85.4621 32.6575 82.4511 29.1833C81.0614 27.562 79.2085 26.8672 77.124 26.8672Z" fill="url(#paint11_linear)"/>
<path d="M31.4992 57.208C33.1621 57.208 34.5102 55.8599 34.5102 54.197C34.5102 52.5341 33.1621 51.186 31.4992 51.186C29.8363 51.186 28.4883 52.5341 28.4883 54.197C28.4883 55.8599 29.8363 57.208 31.4992 57.208Z" fill="#EA826E"/>
<path d="M70.4094 57.208C72.0723 57.208 73.4203 55.8599 73.4203 54.197C73.4203 52.5341 72.0723 51.186 70.4094 51.186C68.7465 51.186 67.3984 52.5341 67.3984 54.197C67.3984 55.8599 68.7465 57.208 70.4094 57.208Z" fill="#EA826E"/>
<path d="M31.2649 56.7451C32.9278 56.7451 34.2758 55.397 34.2758 53.7341C34.2758 52.0712 32.9278 50.7231 31.2649 50.7231C29.602 50.7231 28.2539 52.0712 28.2539 53.7341C28.2539 55.397 29.602 56.7451 31.2649 56.7451Z" fill="url(#paint12_linear)"/>
<path d="M69.9406 56.7451C71.6035 56.7451 72.9516 55.397 72.9516 53.7341C72.9516 52.0712 71.6035 50.7231 69.9406 50.7231C68.2777 50.7231 66.9297 52.0712 66.9297 53.7341C66.9297 55.397 68.2777 56.7451 69.9406 56.7451Z" fill="url(#paint13_linear)"/>
<path d="M107.233 75.9688C108.384 75.9688 109.317 75.0355 109.317 73.8843C109.317 72.7331 108.384 71.7998 107.233 71.7998C106.082 71.7998 105.148 72.7331 105.148 73.8843C105.148 75.0355 106.082 75.9688 107.233 75.9688Z" fill="#EA826E"/>
<path d="M134.331 75.9688C135.482 75.9688 136.415 75.0355 136.415 73.8843C136.415 72.7331 135.482 71.7998 134.331 71.7998C133.179 71.7998 132.246 72.7331 132.246 73.8843C132.246 75.0355 133.179 75.9688 134.331 75.9688Z" fill="#EA826E"/>
<path d="M106.772 75.7369C107.923 75.7369 108.857 74.8036 108.857 73.6524C108.857 72.5011 107.923 71.5679 106.772 71.5679C105.621 71.5679 104.688 72.5011 104.688 73.6524C104.688 74.8036 105.621 75.7369 106.772 75.7369Z" fill="url(#paint14_linear)"/>
<path d="M134.104 75.7369C135.255 75.7369 136.189 74.8036 136.189 73.6524C136.189 72.5011 135.255 71.5679 134.104 71.5679C132.953 71.5679 132.02 72.5011 132.02 73.6524C132.02 74.8036 132.953 75.7369 134.104 75.7369Z" fill="url(#paint15_linear)"/>
<path opacity="0.5" d="M29.8757 53.2709C30.3873 53.2709 30.8021 52.8561 30.8021 52.3444C30.8021 51.8328 30.3873 51.418 29.8757 51.418C29.364 51.418 28.9492 51.8328 28.9492 52.3444C28.9492 52.8561 29.364 53.2709 29.8757 53.2709Z" fill="#033D6A"/>
<path opacity="0.5" d="M68.7897 53.2709C69.3014 53.2709 69.7162 52.8561 69.7162 52.3444C69.7162 51.8328 69.3014 51.418 68.7897 51.418C68.2781 51.418 67.8633 51.8328 67.8633 52.3444C67.8633 52.8561 68.2781 53.2709 68.7897 53.2709Z" fill="#033D6A"/>
<path opacity="0.5" d="M106.078 73.4209C106.461 73.4209 106.773 73.1098 106.773 72.7261C106.773 72.3423 106.461 72.0312 106.078 72.0312C105.694 72.0312 105.383 72.3423 105.383 72.7261C105.383 73.1098 105.694 73.4209 106.078 73.4209Z" fill="#033D6A"/>
<path opacity="0.5" d="M133.41 73.4209C133.793 73.4209 134.104 73.1098 134.104 72.7261C134.104 72.3423 133.793 72.0312 133.41 72.0312C133.026 72.0312 132.715 72.3423 132.715 72.7261C132.715 73.1098 133.026 73.4209 133.41 73.4209Z" fill="#033D6A"/>
<path d="M120.438 92.8762H120.207C117.891 92.6446 116.269 90.7917 116.269 90.7917C115.806 90.3285 115.806 89.8653 116.269 89.6337C116.733 89.4021 117.196 89.4021 117.427 89.8653C117.427 89.8653 118.585 91.2549 120.207 91.2549C121.365 91.2549 122.291 90.7917 123.449 89.6337C123.681 89.4021 124.376 89.4021 124.607 89.6337C124.839 89.8653 124.839 90.5601 124.607 90.7917C123.218 92.1814 121.828 92.8762 120.438 92.8762Z" fill="#021F35"/>
<path d="M148.003 44.7009C141.749 36.3629 131.79 30.8042 120.441 30.8042C109.092 30.8042 99.1324 36.3629 92.8789 44.7009C120.441 20.1501 145.918 42.6164 148.003 44.7009Z" fill="url(#paint16_linear)"/>
</g>
<defs>
<linearGradient id="paint0_linear" x1="144.072" y1="119.285" x2="105.214" y2="71.2284" gradientUnits="userSpaceOnUse">
<stop offset="0.00364583" stop-color="#021F35"/>
<stop offset="1" stop-color="#000E16"/>
</linearGradient>
<linearGradient id="paint1_linear" x1="120.494" y1="124.985" x2="120.494" y2="102.71" gradientUnits="userSpaceOnUse">
<stop stop-color="#F7B592"/>
<stop offset="1" stop-color="#F48977"/>
</linearGradient>
<linearGradient id="paint2_linear" x1="120.497" y1="101.794" x2="120.497" y2="68.0597" gradientUnits="userSpaceOnUse">
<stop stop-color="#F7B592"/>
<stop offset="1" stop-color="#F48977"/>
</linearGradient>
<linearGradient id="paint3_linear" x1="50.6128" y1="112.819" x2="50.6128" y2="96.7215" gradientUnits="userSpaceOnUse">
<stop stop-color="#F7B592"/>
<stop offset="1" stop-color="#F48977"/>
</linearGradient>
<linearGradient id="paint4_linear" x1="0" y1="123.254" x2="101.228" y2="123.254" gradientUnits="userSpaceOnUse">
<stop stop-color="white"/>
<stop offset="1" stop-color="#ADB3C3"/>
</linearGradient>
<linearGradient id="paint5_linear" x1="50.6113" y1="108.019" x2="67.8113" y2="108.019" gradientUnits="userSpaceOnUse">
<stop stop-color="#033D6A"/>
<stop offset="1" stop-color="#021F35"/>
</linearGradient>
<linearGradient id="paint6_linear" x1="33.4137" y1="108.019" x2="50.6111" y2="108.019" gradientUnits="userSpaceOnUse">
<stop stop-color="#021F35"/>
<stop offset="1" stop-color="#04518D"/>
</linearGradient>
<linearGradient id="paint7_linear" x1="50.6079" y1="-30.5987" x2="50.6079" y2="42.1124" gradientUnits="userSpaceOnUse">
<stop offset="0.00364583" stop-color="#0F76BC"/>
<stop offset="0.5243" stop-color="#021F35"/>
<stop offset="1" stop-color="#000E16"/>
</linearGradient>
<linearGradient id="paint8_linear" x1="63.3898" y1="96.4844" x2="42.1586" y2="26.6147" gradientUnits="userSpaceOnUse">
<stop stop-color="#F7B592"/>
<stop offset="1" stop-color="#F48977"/>
</linearGradient>
<linearGradient id="paint9_linear" x1="11.153" y1="19.3707" x2="11.153" y2="86.0041" gradientUnits="userSpaceOnUse">
<stop stop-color="#F7B592"/>
<stop offset="1" stop-color="#F48977"/>
</linearGradient>
<linearGradient id="paint10_linear" x1="90.0673" y1="19.3707" x2="90.0673" y2="86.0041" gradientUnits="userSpaceOnUse">
<stop stop-color="#F7B592"/>
<stop offset="1" stop-color="#F48977"/>
</linearGradient>
<linearGradient id="paint11_linear" x1="76.6078" y1="91.7479" x2="76.6078" y2="28.5149" gradientUnits="userSpaceOnUse">
<stop offset="0.00364583" stop-color="#021F35"/>
<stop offset="1" stop-color="#000E16"/>
</linearGradient>
<linearGradient id="paint12_linear" x1="31.1701" y1="49.4268" x2="31.1701" y2="60.3763" gradientUnits="userSpaceOnUse">
<stop offset="0.00364583" stop-color="#021F35"/>
<stop offset="1" stop-color="#000E16"/>
</linearGradient>
<linearGradient id="paint13_linear" x1="70.049" y1="49.4268" x2="70.049" y2="60.3763" gradientUnits="userSpaceOnUse">
<stop offset="0.00364583" stop-color="#021F35"/>
<stop offset="1" stop-color="#000E16"/>
</linearGradient>
<linearGradient id="paint14_linear" x1="106.82" y1="70.6252" x2="106.82" y2="78.293" gradientUnits="userSpaceOnUse">
<stop offset="0.00364583" stop-color="#021F35"/>
<stop offset="1" stop-color="#000E16"/>
</linearGradient>
<linearGradient id="paint15_linear" x1="134.051" y1="70.6252" x2="134.051" y2="78.293" gradientUnits="userSpaceOnUse">
<stop offset="0.00364583" stop-color="#021F35"/>
<stop offset="1" stop-color="#000E16"/>
</linearGradient>
<linearGradient id="paint16_linear" x1="141.057" y1="70.2741" x2="105.591" y2="26.4126" gradientUnits="userSpaceOnUse">
<stop offset="0.00364583" stop-color="#0F76BC"/>
<stop offset="0.5243" stop-color="#021F35"/>
<stop offset="1" stop-color="#000E16"/>
</linearGradient>
<clipPath id="clip0">
<rect width="162.128" height="148" fill="white"/>
</clipPath>
</defs>
</svg>
